# xmcd CD database file
#
# Track frame offsets:
#	150
#	17562
#	37052
#
# Disc length: 724 seconds
#
# Revision: 0
# Processed by: cddbd v1.5PL3 Copyright (c) Steve Scherf et al.
# Submitted via: CDex 1.51
#
DISCID=1c02d203
DTITLE=MAGUMA MC's - MGM
DYEAR=2003
DGENRE=ヒップ ホップ (一般)
TTITLE0=MGM
TTITLE1=NEXTAGE
TTITLE2=THAT'S WHAT WE ARE
EXTD=YEAR: 2003/03/19
EXTT0=
EXTT1=
EXTT2=
PLAYORDER=
